<svg width="30" height="30" viewBox="0 0 30 30" fill="none" xmlns="http://www.w3.org/2000/svg">
<path d="M16.5 16.2488C14.9531 16.2488 13.6679 15.7268 12.6444 14.6828C11.6211 13.6386 11.1095 12.3275 11.1095 10.7494C11.1095 9.17126 11.6211 7.86011 12.6444 6.81592C13.6679 5.77198 14.9531 5.25 16.5 5.25C18.0469 5.25 19.3321 5.77198 20.3556 6.81592C21.3789 7.86011 21.8905 9.17126 21.8905 10.7494C21.8905 12.3275 21.3789 13.6386 20.3556 14.6828C19.3321 15.7268 18.0469 16.2488 16.5 16.2488ZM5.25 27.75V24.1634C5.25 23.2866 5.4668 22.5194 5.90039 21.8618C6.33398 21.2043 6.89848 20.7042 7.59387 20.3615C9.12504 19.6363 10.6211 19.0924 12.0819 18.7296C13.543 18.3669 15.0157 18.1855 16.5 18.1855C17.9843 18.1855 19.453 18.3708 20.9061 18.7415C22.3593 19.1121 23.8508 19.6537 25.3808 20.3662C26.0966 20.711 26.6704 21.2109 27.1021 21.8658C27.534 22.5207 27.75 23.2866 27.75 24.1634V27.75H5.25ZM7.59387 25.3588H25.4061V24.1634C25.4061 23.8207 25.3105 23.4979 25.1193 23.195C24.9278 22.892 24.6875 22.6649 24.3986 22.5135C22.9766 21.8041 21.6367 21.304 20.3788 21.0132C19.1211 20.7222 17.8282 20.5767 16.5 20.5767C15.1718 20.5767 13.871 20.7222 12.5977 21.0132C11.3243 21.304 9.98449 21.8041 8.57824 22.5135C8.28902 22.6649 8.05266 22.892 7.86914 23.195C7.68563 23.4979 7.59387 23.8207 7.59387 24.1634V25.3588ZM16.5 13.8579C17.3672 13.8579 18.0918 13.5609 18.6737 12.967C19.2559 12.3733 19.547 11.6341 19.547 10.7494C19.547 9.86468 19.2559 9.12547 18.6737 8.53177C18.0918 7.93782 17.3672 7.64085 16.5 7.64085C15.6328 7.64085 14.9082 7.93782 14.3263 8.53177C13.7441 9.12547 13.453 9.86468 13.453 10.7494C13.453 11.6341 13.7441 12.3733 14.3263 12.967C14.9082 13.5609 15.6328 13.8579 16.5 13.8579Z" fill="white"/>
</svg>
