<svg width="20" height="24" viewBox="0 0 20 24" fill="none" xmlns="http://www.w3.org/2000/svg">
<path d="M9.41177 24C8.76471 24 8.21078 23.765 7.75 23.295C7.28922 22.825 7.05882 22.26 7.05882 21.6H11.7647C11.7647 22.26 11.5343 22.825 11.0735 23.295C10.6127 23.765 10.0588 24 9.41177 24ZM0 20.4V18H2.35294V9.6C2.35294 7.94 2.84314 6.465 3.82353 5.175C4.80392 3.885 6.07843 3.04 7.64706 2.64V1.8C7.64706 1.3 7.81863 0.875 8.16177 0.525C8.5049 0.175 8.92157 0 9.41177 0C9.90196 0 10.3186 0.175 10.6618 0.525C11.0049 0.875 11.1765 1.3 11.1765 1.8V2.64C11.7451 2.78 12.2696 2.985 12.75 3.255C13.2304 3.525 13.6765 3.84 14.0882 4.2L12.4118 5.91C12 5.57 11.5392 5.3 11.0294 5.1C10.5196 4.9 9.98039 4.8 9.41177 4.8C8.11765 4.8 7.0098 5.27 6.08824 6.21C5.16667 7.15 4.70588 8.28 4.70588 9.6V18H18.8235V20.4H0ZM14.5882 13.83L12.9412 12.12C13.1373 11.92 13.2843 11.68 13.3824 11.4C13.4804 11.12 13.5294 10.8 13.5294 10.44C13.5294 10.08 13.4804 9.755 13.3824 9.465C13.2843 9.175 13.1373 8.93 12.9412 8.73L14.5882 7.05C15 7.47 15.3186 7.97 15.5441 8.55C15.7696 9.13 15.8824 9.76 15.8824 10.44C15.8824 11.12 15.7696 11.75 15.5441 12.33C15.3186 12.91 15 13.41 14.5882 13.83ZM15.8529 15.12C16.4216 14.54 16.8627 13.84 17.1765 13.02C17.4902 12.2 17.6471 11.34 17.6471 10.44C17.6471 9.54 17.4902 8.68 17.1765 7.86C16.8627 7.04 16.4216 6.34 15.8529 5.76L17.5294 4.08C18.3333 4.9 18.9461 5.855 19.3676 6.945C19.7892 8.035 20 9.2 20 10.44C20 11.68 19.7892 12.845 19.3676 13.935C18.9461 15.025 18.3333 15.98 17.5294 16.8L15.8529 15.12Z" fill="white"/>
</svg>
