<svg width="37" height="37" viewBox="0 0 37 37" fill="none" xmlns="http://www.w3.org/2000/svg">
<path d="M18.4873 26.7992C20.3715 26.7992 21.9581 26.1548 23.2472 24.8659C24.5361 23.5768 25.1805 21.9902 25.1805 20.106C25.1805 18.2216 24.5361 16.6392 23.2472 15.3589C21.9581 14.0785 20.3715 13.4383 18.4873 13.4383C16.6029 13.4383 15.0205 14.0785 13.7401 15.3589C12.4598 16.6392 11.8196 18.2216 11.8196 20.106C11.8196 21.9902 12.4598 23.5768 13.7401 24.8659C15.0205 26.1548 16.6029 26.7992 18.4873 26.7992ZM18.4873 24.23C17.3139 24.23 16.3375 23.836 15.5582 23.0479C14.7786 22.2599 14.3888 21.2792 14.3888 20.106C14.3888 18.9326 14.7786 17.9562 15.5582 17.1769C16.3375 16.3973 17.3139 16.0075 18.4873 16.0075C19.6605 16.0075 20.6412 16.3973 21.4292 17.1769C22.2173 17.9562 22.6113 18.9326 22.6113 20.106C22.6113 21.2792 22.2173 22.2599 21.4292 23.0479C20.6412 23.836 19.6605 24.23 18.4873 24.23ZM5.65295 32.375C4.9592 32.375 4.35743 32.1202 3.84766 31.6107C3.33813 31.1009 3.08337 30.4992 3.08337 29.8054V10.4575C3.08337 9.78098 3.33813 9.18358 3.84766 8.66532C4.35743 8.14732 4.9592 7.88832 5.65295 7.88832H11.0488L13.875 4.625H23.125L25.9513 7.88832H31.3471C32.0239 7.88832 32.6213 8.14732 33.1393 8.66532C33.6576 9.18358 33.9167 9.78098 33.9167 10.4575V29.8054C33.9167 30.4992 33.6576 31.1009 33.1393 31.6107C32.6213 32.1202 32.0239 32.375 31.3471 32.375H5.65295ZM5.65295 29.8054H31.3471V10.4575H24.7696L21.9561 7.19457H15.044L12.2305 10.4575H5.65295V29.8054Z" fill="white"/>
</svg>
