<svg width="62" height="62" viewBox="0 0 62 62" fill="none" xmlns="http://www.w3.org/2000/svg">
<path d="M31.0001 56.8327C27.4273 56.8327 24.069 56.1558 20.9251 54.797C17.7812 53.4433 15.048 51.6014 12.723 49.2764C10.398 46.9514 8.55866 44.2183 7.20241 41.0743C5.84617 37.9304 5.16675 34.5721 5.16675 30.9993C5.16675 27.4266 5.84617 24.0683 7.20241 20.9243C8.55866 17.7804 10.398 15.0473 12.723 12.7223C15.048 10.3973 17.7812 8.55793 20.9251 7.1991C24.069 5.84285 27.4273 5.16602 31.0001 5.16602C34.5728 5.16602 37.9312 5.84285 41.0751 7.1991C44.219 8.55793 46.9522 10.3973 49.2772 12.7223C51.6022 15.0473 53.4441 17.7804 54.8003 20.9243C56.1566 24.0683 56.8334 27.4266 56.8334 30.9993C56.8334 34.5721 56.1566 37.9304 54.8003 41.0743C53.4441 44.2183 51.6022 46.9514 49.2772 49.2764C46.9522 51.6014 44.219 53.4433 41.0751 54.797C37.9312 56.1558 34.5728 56.8327 31.0001 56.8327Z" fill="#4260F5"/>
<path d="M27.3832 42.8839L45.5957 24.6714L41.9791 21.0547L27.3832 35.6505L20.0207 28.288L16.4041 31.9047L27.3832 42.8839Z" fill="white"/>
</svg>
