<svg width="24" height="24" viewBox="0 0 24 24" fill="none" xmlns="http://www.w3.org/2000/svg">
<path d="M5 21C4.45 21 3.979 20.804 3.588 20.413C3.196 20.021 3 19.55 3 19V5C3 4.45 3.196 3.979 3.588 3.587C3.979 3.196 4.45 3 5 3H19C19.55 3 20.021 3.196 20.413 3.587C20.804 3.979 21 4.45 21 5V19C21 19.55 20.804 20.021 20.413 20.413C20.021 20.804 19.55 21 19 21H5Z" fill="white"/>
<path d="M19.4479 4.55176H4.55176V19.4479H19.4479V4.55176Z" fill="#606060"/>
<path d="M11.3751 12.6249H6.75V11.3751H11.3751V6.75H12.6249V11.3751H17.25V12.6249H12.6249V17.25H11.3751V12.6249Z" fill="white"/>
</svg>
