<?xml version="1.0" encoding="UTF-8" standalone="no"?>
<!DOCTYPE svg PUBLIC "-//W3C//DTD SVG 1.1//EN" "http://www.w3.org/Graphics/SVG/1.1/DTD/svg11.dtd">
<svg width="100%" height="100%" viewBox="0 0 24 24" version="1.1" xmlns="http://www.w3.org/2000/svg" xmlns:xlink="http://www.w3.org/1999/xlink" xml:space="preserve" xmlns:serif="http://www.serif.com/" style="fill-rule:evenodd;clip-rule:evenodd;stroke-linejoin:round;stroke-miterlimit:2;">
    <circle cx="11.942" cy="11.961" r="8.455" style="fill:rgb(235,235,235);"/>
    <g transform="matrix(0.025,0,0,0.025,0,24)">
        <path d="M296,-270L371,-270L478,-434L586,-270L664,-270L519,-488L652,-690L577,-690L479,-538L381,-690L304,-690L439,-487L296,-270ZM480,-80C424.667,-80 372.667,-90.5 324,-111.5C275.333,-132.5 233,-161 197,-197C161,-233 132.5,-275.333 111.5,-324C90.5,-372.667 80,-424.667 80,-480C80,-535.333 90.5,-587.333 111.5,-636C132.5,-684.667 161,-727 197,-763C233,-799 275.333,-827.5 324,-848.5C372.667,-869.5 424.667,-880 480,-880C535.333,-880 587.333,-869.5 636,-848.5C684.667,-827.5 727,-799 763,-763C799,-727 827.5,-684.667 848.5,-636C869.5,-587.333 880,-535.333 880,-480C880,-424.667 869.5,-372.667 848.5,-324C827.5,-275.333 799,-233 763,-197C727,-161 684.667,-132.5 636,-111.5C587.333,-90.5 535.333,-80 480,-80ZM480,-160C568.667,-160 644.167,-191.167 706.5,-253.5C768.833,-315.833 800,-391.333 800,-480C800,-568.667 768.833,-644.167 706.5,-706.5C644.167,-768.833 568.667,-800 480,-800C391.333,-800 315.833,-768.833 253.5,-706.5C191.167,-644.167 160,-568.667 160,-480C160,-391.333 191.167,-315.833 253.5,-253.5C315.833,-191.167 391.333,-160 480,-160Z" style="fill:rgb(96,96,96);fill-rule:nonzero;"/>
    </g>
</svg>
