<svg width="30" height="30" viewBox="0 0 30 30" fill="none" xmlns="http://www.w3.org/2000/svg">
<path d="M1.25006 25V21.5C1.25006 20.7917 1.43256 20.1409 1.79756 19.5475C2.16256 18.9542 2.64673 18.5009 3.25006 18.1875C4.54173 17.5417 5.85423 17.0575 7.18756 16.735C8.52089 16.4125 9.87506 16.2509 11.2501 16.25C12.6251 16.2492 13.9792 16.4109 15.3126 16.735C16.6459 17.0592 17.9584 17.5434 19.2501 18.1875C19.8542 18.5 20.3388 18.9534 20.7038 19.5475C21.0688 20.1417 21.2509 20.7925 21.2501 21.5V25H1.25006ZM23.7501 25V21.25C23.7501 20.3334 23.4951 19.4529 22.9851 18.6088C22.4751 17.7646 21.7509 17.0409 20.8126 16.4375C21.8751 16.5625 22.8751 16.7763 23.8126 17.0788C24.7501 17.3813 25.6251 17.7509 26.4376 18.1875C27.1876 18.6042 27.7605 19.0675 28.1563 19.5775C28.5521 20.0875 28.7501 20.645 28.7501 21.25V25H23.7501ZM11.2501 15C9.87506 15 8.69798 14.5104 7.71881 13.5313C6.73964 12.5521 6.25006 11.375 6.25006 10C6.25006 8.62503 6.73964 7.44795 7.71881 6.46878C8.69798 5.48962 9.87506 5.00003 11.2501 5.00003C12.6251 5.00003 13.8021 5.48962 14.7813 6.46878C15.7605 7.44795 16.2501 8.62503 16.2501 10C16.2501 11.375 15.7605 12.5521 14.7813 13.5313C13.8021 14.5104 12.6251 15 11.2501 15ZM23.7501 10C23.7501 11.375 23.2605 12.5521 22.2813 13.5313C21.3021 14.5104 20.1251 15 18.7501 15C18.5209 15 18.2292 14.9742 17.8751 14.9225C17.5209 14.8709 17.2292 14.8134 17.0001 14.75C17.5626 14.0834 17.9951 13.3438 18.2976 12.5313C18.6001 11.7188 18.7509 10.875 18.7501 10C18.7492 9.12503 18.5984 8.28128 18.2976 7.46878C17.9967 6.65628 17.5642 5.9167 17.0001 5.25003C17.2917 5.14587 17.5834 5.07795 17.8751 5.04628C18.1667 5.01462 18.4584 4.9992 18.7501 5.00003C20.1251 5.00003 21.3021 5.48962 22.2813 6.46878C23.2605 7.44795 23.7501 8.62503 23.7501 10ZM3.75006 22.5H18.7501V21.5C18.7501 21.2709 18.693 21.0625 18.5788 20.875C18.4646 20.6875 18.3134 20.5417 18.1251 20.4375C17.0001 19.875 15.8646 19.4534 14.7188 19.1725C13.573 18.8917 12.4167 18.7509 11.2501 18.75C10.0834 18.7492 8.92714 18.89 7.78131 19.1725C6.63548 19.455 5.50006 19.8767 4.37506 20.4375C4.18756 20.5417 4.03631 20.6875 3.92131 20.875C3.80631 21.0625 3.74923 21.2709 3.75006 21.5V22.5ZM11.2501 12.5C11.9376 12.5 12.5263 12.2554 13.0163 11.7663C13.5063 11.2771 13.7509 10.6884 13.7501 10C13.7492 9.3117 13.5046 8.72337 13.0163 8.23503C12.528 7.7467 11.9392 7.5017 11.2501 7.50003C10.5609 7.49837 9.97256 7.74337 9.48506 8.23503C8.99756 8.7267 8.75256 9.31503 8.75006 10C8.74756 10.685 8.99256 11.2738 9.48506 11.7663C9.97756 12.2588 10.5659 12.5034 11.2501 12.5Z" fill="white"/>
</svg>
