<svg width="18" height="18" viewBox="0 0 18 18" fill="none" xmlns="http://www.w3.org/2000/svg">
<path d="M1.66675 16.3165H2.875L14 5.20825L12.7917 4L1.66675 15.1082V16.3165ZM0 17.9832V14.4332L13.9833 0.475C14.1389 0.325 14.3181 0.208333 14.5208 0.125C14.7236 0.0416667 14.9361 0 15.1583 0C15.3694 0 15.5778 0.0416667 15.7833 0.125C15.9889 0.208333 16.1723 0.32775 16.3333 0.48325L17.525 1.68325C17.6917 1.84442 17.8125 2.02775 17.8875 2.23325C17.9625 2.43875 18 2.64433 18 2.85C18 3.061 17.9597 3.27067 17.8792 3.479C17.7986 3.68733 17.6805 3.86933 17.525 4.025L3.55 17.9832H0ZM13.3917 4.60825L12.7917 4L14 5.20825L13.3917 4.60825Z" fill="white"/>
</svg>
