<svg width="35" height="36" viewBox="0 0 35 36" fill="none" xmlns="http://www.w3.org/2000/svg">
<path d="M6.80568 29.0001H8.56771L24.7917 12.3378L23.0296 10.5254L6.80568 27.1878V29.0001ZM4.375 31.5003V26.1753L24.7672 5.23789C24.9943 5.01289 25.2555 4.83789 25.5511 4.71289C25.8469 4.58789 26.1568 4.52539 26.4808 4.52539C26.7887 4.52539 27.0926 4.58789 27.3922 4.71289C27.6922 4.83789 27.9595 5.01702 28.1943 5.25027L29.9323 7.05027C30.1753 7.29202 30.3516 7.56702 30.4609 7.87527C30.5703 8.18352 30.625 8.49189 30.625 8.80039C30.625 9.11689 30.5663 9.43139 30.4489 9.74389C30.3313 10.0564 30.1591 10.3294 29.9323 10.5629L9.55208 31.5003H4.375ZM23.9046 11.4378L23.0296 10.5254L24.7917 12.3378L23.9046 11.4378Z" fill="white"/>
</svg>
