<svg width="30" height="30" viewBox="0 0 30 30" fill="none" xmlns="http://www.w3.org/2000/svg">
<path d="M14.9376 26.25C11.9099 26.25 9.31787 25.1997 7.16162 23.0991C5.00537 20.9982 3.87516 18.4305 3.771 15.3959H5.87506C5.97235 17.8543 6.89079 19.9306 8.63037 21.625C10.37 23.3194 12.4724 24.1666 14.9376 24.1666C17.514 24.1666 19.6963 23.2655 21.4844 21.4634C23.2726 19.6614 24.1666 17.4722 24.1666 14.8959C24.1666 12.3611 23.2656 10.217 21.4635 8.46344C19.6614 6.7101 17.4861 5.83344 14.9376 5.83344C13.514 5.83344 12.1807 6.15979 10.9376 6.8125C9.69443 7.46521 8.62495 8.34021 7.72912 9.4375H11.0626V11.5209H4.2085V4.6875H6.29162V7.875C7.36808 6.58333 8.65808 5.57292 10.1616 4.84375C11.665 4.11458 13.2569 3.75 14.9376 3.75C16.5001 3.75 17.967 4.04344 19.3385 4.63031C20.7102 5.21698 21.9081 6.01552 22.9322 7.02594C23.9566 8.03635 24.7657 9.22042 25.3594 10.5781C25.9532 11.9358 26.2501 13.3959 26.2501 14.9584C26.2501 16.5209 25.9532 17.9879 25.3594 19.3594C24.7657 20.7308 23.9566 21.9253 22.9322 22.9428C21.9081 23.9601 20.7102 24.7656 19.3385 25.3594C17.967 25.9531 16.5001 26.25 14.9376 26.25ZM18.771 20.1459L13.9791 15.3959V8.6875H16.0626V14.5416L20.2501 18.6666L18.771 20.1459Z" fill="white"/>
</svg>
