<?xml version="1.0" encoding="UTF-8" standalone="no"?>
<!DOCTYPE svg PUBLIC "-//W3C//DTD SVG 1.1//EN" "http://www.w3.org/Graphics/SVG/1.1/DTD/svg11.dtd">
<svg width="100%" height="100%" viewBox="0 0 40 40" version="1.1" xmlns="http://www.w3.org/2000/svg" xmlns:xlink="http://www.w3.org/1999/xlink" xml:space="preserve" xmlns:serif="http://www.serif.com/" style="fill-rule:evenodd;clip-rule:evenodd;stroke-linejoin:round;stroke-miterlimit:2;">
    <path d="M20,36.667C15.528,32.861 12.188,29.326 9.979,26.063C7.771,22.799 6.667,19.778 6.667,17C6.667,12.833 8.007,9.514 10.688,7.042C13.368,4.569 16.472,3.333 20,3.333C23.528,3.333 26.632,4.569 29.313,7.042C31.993,9.514 33.333,12.833 33.333,17C33.333,19.778 32.229,22.799 30.021,26.063C27.813,29.326 24.472,32.861 20,36.667ZM20.004,20.995C21.195,20.995 22.213,20.571 23.059,19.722C23.905,18.874 24.328,17.855 24.328,16.663C24.328,15.472 23.904,14.454 23.056,13.608C22.208,12.762 21.188,12.339 19.996,12.339C18.805,12.339 17.787,12.763 16.941,13.611C16.095,14.459 15.672,15.479 15.672,16.67C15.672,17.861 16.096,18.88 16.944,19.726C17.792,20.572 18.812,20.995 20.004,20.995Z" style="fill:rgb(245,136,66);fill-rule:nonzero;"/>
</svg>
