<svg width="40" height="40" viewBox="0 0 40 40" fill="none" xmlns="http://www.w3.org/2000/svg">
<path d="M20 22.6943C18.7409 22.6943 17.6807 22.2459 16.8196 21.3493C15.9585 20.4526 15.528 19.3638 15.528 18.083V7.77759C15.528 6.54287 15.9625 5.49342 16.8317 4.62926C17.7012 3.76509 18.7567 3.33301 19.9984 3.33301C21.2403 3.33301 22.2964 3.76509 23.1667 4.62926C24.037 5.49342 24.4721 6.54287 24.4721 7.77759V18.083C24.4721 19.3638 24.0416 20.4526 23.1805 21.3493C22.3193 22.2459 21.2592 22.6943 20 22.6943ZM18.6113 34.9997V29.5134C15.6852 29.1801 13.2407 27.9255 11.278 25.7497C9.3149 23.5738 8.33337 21.0183 8.33337 18.083H11.1113C11.1113 20.5366 11.9774 22.6084 13.7096 24.2984C15.4416 25.9881 17.5364 26.833 19.9942 26.833C22.4517 26.833 24.5485 25.9881 26.2846 24.2984C28.0207 22.6084 28.8888 20.5366 28.8888 18.083H31.6667C31.6667 21.0183 30.6852 23.5738 28.7221 25.7497C26.7593 27.9255 24.3149 29.1801 21.3888 29.5134V34.9997H18.6113ZM20 19.9163C20.4909 19.9163 20.896 19.7381 21.2155 19.3818C21.5349 19.0251 21.6946 18.5922 21.6946 18.083V7.77759C21.6946 7.30537 21.5323 6.90953 21.2075 6.59009C20.8825 6.27065 20.48 6.11092 20 6.11092C19.52 6.11092 19.1175 6.27065 18.7925 6.59009C18.4678 6.90953 18.3055 7.30537 18.3055 7.77759V18.083C18.3055 18.5922 18.4652 19.0251 18.7846 19.3818C19.1041 19.7381 19.5092 19.9163 20 19.9163Z" fill="white"/>
</svg>
