<svg xmlns="http://www.w3.org/2000/svg" height="40px" viewBox="0 -960 960 960" width="40px" fill="#ffffff"><path d="M479.33-80Q313-223.33 236.5-340.67 160-458 160-568.67q0-137 96.83-224.16Q353.67-880 479.33-880q131 0 225.84 92.33Q800-695.33 800-536l90.67-90.67L937.33-580 766.67-409.33 596-580l46.67-46.67L733.33-536q0-124.33-71.83-200.83-71.83-76.5-182.17-76.5-105.66 0-179.16 71.33t-73.5 174.33q0 86.34 61 182.67 61 96.33 191.66 217 20-18.67 41-39.33 21-20.67 38-37.67-5.66-11-9-22.33-3.33-11.34-3.33-24 0-38.67 27.33-66 27.34-27.34 66-27.34 38.67 0 65.67 27.34 27 27.33 27 66 0 38.66-27.33 65.66-27.34 27-66 27-8 0-14.84-1.33-6.83-1.33-13.83-3.33Q579.67-172 548.5-142t-69.17 62Z"/></svg>