<svg width="24" height="24" viewBox="0 0 24 24" fill="none" xmlns="http://www.w3.org/2000/svg">
<path d="M5 21C4.45 21 3.979 20.804 3.588 20.413C3.196 20.021 3 19.55 3 19V5C3 4.45 3.196 3.979 3.588 3.587C3.979 3.196 4.45 3 5 3H19C19.55 3 20.021 3.196 20.413 3.587C20.804 3.979 21 4.45 21 5V19C21 19.55 20.804 20.021 20.413 20.413C20.021 20.804 19.55 21 19 21H5Z" fill="white"/>
<path d="M19.4675 4.53223H4.53247V19.4673H19.4675V4.53223Z" fill="#606060"/>
<path d="M12 18C12.35 18 12.646 17.879 12.888 17.638C13.129 17.396 13.25 17.1 13.25 16.75C13.25 16.4 13.129 16.104 12.888 15.862C12.646 15.621 12.35 15.5 12 15.5C11.65 15.5 11.354 15.621 11.113 15.862C10.871 16.104 10.75 16.4 10.75 16.75C10.75 17.1 10.871 17.396 11.113 17.638C11.354 17.879 11.65 18 12 18Z" fill="white"/>
<path d="M11.1 14.15H12.95C12.95 13.55 13.017 13.108 13.15 12.825C13.283 12.542 13.567 12.183 14 11.75C14.583 11.167 14.996 10.679 15.238 10.288C15.479 9.896 15.6 9.45 15.6 8.95C15.6 8.067 15.3 7.354 14.7 6.813C14.1 6.271 13.292 6 12.275 6C11.358 6 10.579 6.225 9.93797 6.675C9.29597 7.125 8.84998 7.75 8.59998 8.55L10.25 9.2C10.367 8.75 10.6 8.388 10.95 8.112C11.3 7.837 11.708 7.7 12.175 7.7C12.625 7.7 13 7.821 13.3 8.063C13.6 8.304 13.75 8.625 13.75 9.025C13.75 9.308 13.658 9.608 13.475 9.925C13.292 10.242 12.983 10.592 12.55 10.975C12 11.458 11.621 11.921 11.413 12.362C11.204 12.804 11.1 13.4 11.1 14.15Z" fill="white"/>
</svg>
