<svg width="32" height="32" viewBox="0 0 32 32" fill="none" xmlns="http://www.w3.org/2000/svg">
<path d="M1.3335 26.6664V22.933C1.3335 22.1775 1.52816 21.4833 1.9175 20.8504C2.30683 20.2175 2.82327 19.7339 3.46683 19.3997C4.84461 18.7108 6.24461 18.1944 7.66683 17.8504C9.08905 17.5064 10.5335 17.3339 12.0002 17.333C13.4668 17.3322 14.9113 17.5046 16.3335 17.8504C17.7557 18.1962 19.1557 18.7126 20.5335 19.3997C21.1779 19.733 21.6948 20.2166 22.0842 20.8504C22.4735 21.4842 22.6677 22.1784 22.6668 22.933V26.6664H1.3335ZM25.3335 26.6664V22.6664C25.3335 21.6886 25.0615 20.7495 24.5175 19.849C23.9735 18.9486 23.2011 18.1766 22.2002 17.533C23.3335 17.6664 24.4002 17.8944 25.4002 18.217C26.4002 18.5397 27.3335 18.9339 28.2002 19.3997C29.0002 19.8442 29.6113 20.3384 30.0335 20.8824C30.4557 21.4264 30.6668 22.021 30.6668 22.6664V26.6664H25.3335ZM12.0002 15.9997C10.5335 15.9997 9.27794 15.4775 8.2335 14.433C7.18905 13.3886 6.66683 12.133 6.66683 10.6664C6.66683 9.19971 7.18905 7.94415 8.2335 6.89971C9.27794 5.85526 10.5335 5.33304 12.0002 5.33304C13.4668 5.33304 14.7224 5.85526 15.7668 6.89971C16.8113 7.94415 17.3335 9.19971 17.3335 10.6664C17.3335 12.133 16.8113 13.3886 15.7668 14.433C14.7224 15.4775 13.4668 15.9997 12.0002 15.9997ZM25.3335 10.6664C25.3335 12.133 24.8113 13.3886 23.7668 14.433C22.7224 15.4775 21.4668 15.9997 20.0002 15.9997C19.7557 15.9997 19.4446 15.9722 19.0668 15.917C18.6891 15.8619 18.3779 15.8006 18.1335 15.733C18.7335 15.0219 19.1948 14.233 19.5175 13.3664C19.8402 12.4997 20.0011 11.5997 20.0002 10.6664C19.9993 9.73304 19.8384 8.83304 19.5175 7.96638C19.1966 7.09971 18.7353 6.31082 18.1335 5.59971C18.4446 5.4886 18.7557 5.41615 19.0668 5.38238C19.3779 5.3486 19.6891 5.33215 20.0002 5.33304C21.4668 5.33304 22.7224 5.85526 23.7668 6.89971C24.8113 7.94415 25.3335 9.19971 25.3335 10.6664ZM4.00016 23.9997H20.0002V22.933C20.0002 22.6886 19.9393 22.4664 19.8175 22.2664C19.6957 22.0664 19.5344 21.9108 19.3335 21.7997C18.1335 21.1997 16.9224 20.7499 15.7002 20.4504C14.4779 20.1508 13.2446 20.0006 12.0002 19.9997C10.7557 19.9988 9.52239 20.149 8.30016 20.4504C7.07794 20.7517 5.86683 21.2015 4.66683 21.7997C4.46683 21.9108 4.3055 22.0664 4.18283 22.2664C4.06016 22.4664 3.99927 22.6886 4.00016 22.933V23.9997ZM12.0002 13.333C12.7335 13.333 13.3615 13.0722 13.8842 12.5504C14.4068 12.0286 14.6677 11.4006 14.6668 10.6664C14.6659 9.93215 14.4051 9.3046 13.8842 8.78371C13.3633 8.26282 12.7353 8.00149 12.0002 7.99971C11.2651 7.99793 10.6375 8.25926 10.1175 8.78371C9.5975 9.30815 9.33616 9.93571 9.3335 10.6664C9.33083 11.397 9.59216 12.025 10.1175 12.5504C10.6428 13.0757 11.2704 13.3366 12.0002 13.333Z" fill="white"/>
</svg>
