<svg width="30" height="22" viewBox="0 0 30 22" fill="none" xmlns="http://www.w3.org/2000/svg">
<path d="M0 21.3334V17.6C0 16.8445 0.194667 16.1503 0.584 15.5174C0.973333 14.8845 1.48978 14.4009 2.13333 14.0667C3.51111 13.3778 4.91111 12.8614 6.33333 12.5174C7.75556 12.1734 9.2 12.0009 10.6667 12C12.1333 11.9991 13.5778 12.1716 15 12.5174C16.4222 12.8631 17.8222 13.3796 19.2 14.0667C19.8444 14.4 20.3613 14.8836 20.7507 15.5174C21.14 16.1511 21.3342 16.8454 21.3333 17.6V21.3334H0ZM24 21.3334V17.3334C24 16.3556 23.728 15.4165 23.184 14.516C22.64 13.6156 21.8676 12.8436 20.8667 12.2C22 12.3334 23.0667 12.5614 24.0667 12.884C25.0667 13.2067 26 13.6009 26.8667 14.0667C27.6667 14.5111 28.2778 15.0054 28.7 15.5494C29.1222 16.0934 29.3333 16.688 29.3333 17.3334V21.3334H24ZM10.6667 10.6667C9.2 10.6667 7.94445 10.1445 6.9 9.10003C5.85556 8.05559 5.33333 6.80003 5.33333 5.33337C5.33333 3.8667 5.85556 2.61115 6.9 1.5667C7.94445 0.522257 9.2 3.41876e-05 10.6667 3.41876e-05C12.1333 3.41876e-05 13.3889 0.522257 14.4333 1.5667C15.4778 2.61115 16 3.8667 16 5.33337C16 6.80003 15.4778 8.05559 14.4333 9.10003C13.3889 10.1445 12.1333 10.6667 10.6667 10.6667ZM24 5.33337C24 6.80003 23.4778 8.05559 22.4333 9.10003C21.3889 10.1445 20.1333 10.6667 18.6667 10.6667C18.4222 10.6667 18.1111 10.6391 17.7333 10.584C17.3556 10.5289 17.0444 10.4676 16.8 10.4C17.4 9.68892 17.8613 8.90003 18.184 8.03337C18.5067 7.1667 18.6676 6.2667 18.6667 5.33337C18.6658 4.40003 18.5049 3.50003 18.184 2.63337C17.8631 1.7667 17.4018 0.977812 16.8 0.266701C17.1111 0.155589 17.4222 0.0831455 17.7333 0.0493678C18.0444 0.01559 18.3556 -0.000854701 18.6667 3.41876e-05C20.1333 3.41876e-05 21.3889 0.522257 22.4333 1.5667C23.4778 2.61115 24 3.8667 24 5.33337ZM2.66667 18.6667H18.6667V17.6C18.6667 17.3556 18.6058 17.1334 18.484 16.9334C18.3622 16.7334 18.2009 16.5778 18 16.4667C16.8 15.8667 15.5889 15.4169 14.3667 15.1174C13.1444 14.8178 11.9111 14.6676 10.6667 14.6667C9.42222 14.6658 8.18889 14.816 6.96667 15.1174C5.74444 15.4187 4.53333 15.8685 3.33333 16.4667C3.13333 16.5778 2.972 16.7334 2.84933 16.9334C2.72667 17.1334 2.66578 17.3556 2.66667 17.6V18.6667ZM10.6667 8.00003C11.4 8.00003 12.028 7.73915 12.5507 7.21737C13.0733 6.69559 13.3342 6.06759 13.3333 5.33337C13.3324 4.59915 13.0716 3.97159 12.5507 3.4507C12.0298 2.92981 11.4018 2.66848 10.6667 2.6667C9.93156 2.66492 9.304 2.92626 8.784 3.4507C8.264 3.97515 8.00267 4.6027 8 5.33337C7.99733 6.06403 8.25867 6.69203 8.784 7.21737C9.30933 7.7427 9.93689 8.00359 10.6667 8.00003Z" fill="white"/>
</svg>
