<svg width="26" height="30" viewBox="0 0 26 30" fill="none" xmlns="http://www.w3.org/2000/svg">
<path d="M13.258 29.3754C12.8127 29.5101 12.3688 29.5501 11.9265 29.4953C11.4842 29.4405 11.0723 29.3116 10.6908 29.1086L5.1685e-05 23.3598L1.53915 20.3893C1.79771 19.901 2.13361 19.4928 2.54684 19.1646C2.96034 18.8364 3.43845 18.6579 3.98118 18.6293L7.26115 18.3913L3.3277 5.38999C2.98986 4.27331 3.08982 3.21282 3.62759 2.2085C4.16536 1.20419 4.99259 0.533113 6.10927 0.19527C7.22595 -0.142572 8.28644 -0.0426082 9.29076 0.495161C10.2951 1.03293 10.9661 1.86015 11.304 2.97683L13.4758 10.1555L14.5127 9.84178C14.6457 9.80156 14.7721 9.77781 14.8921 9.77054C15.0118 9.76334 15.1497 9.76517 15.3056 9.77604L22.0347 10.6277C22.7613 10.7271 23.3771 11.0518 23.8822 11.6019C24.3873 12.152 24.6789 12.7958 24.7569 13.5334L25.9299 22.6507C26.033 23.4634 25.8578 24.2092 25.4044 24.8879C24.951 25.5669 24.3353 26.024 23.5574 26.2594L13.258 29.3754ZM12.2641 26.7738L23.2048 23.4638L21.9603 13.451L13.8654 12.4027L11.4725 13.1267L8.64509 3.78126C8.52443 3.38245 8.30545 3.09798 7.98815 2.92785C7.67066 2.75807 7.31251 2.73351 6.91369 2.85416C6.51488 2.97482 6.23041 3.19381 6.06028 3.51111C5.8905 3.8286 5.86594 4.18675 5.9866 4.58557L10.9014 20.8305L4.1804 21.3986L3.75398 22.1949L12.2641 26.7738Z" fill="white"/>
</svg>
